<?xml version="1.0" standalone="no"?>
<!DOCTYPE svg PUBLIC "-//W3C//DTD SVG 20010904//EN"
 "http://www.w3.org/TR/2001/REC-SVG-20010904/DTD/svg10.dtd">
<svg version="1.0" xmlns="http://www.w3.org/2000/svg"
 width="864.000000pt" height="864.000000pt" viewBox="0 0 864.000000 864.000000"
 preserveAspectRatio="xMidYMid meet">
<metadata>
Created by potrace 1.11, written by Peter Selinger 2001-2013
</metadata>
<g transform="translate(0.000000,864.000000) scale(0.100000,-0.100000)"
fill="#000000" stroke="none">
<path d="M4255 8568 c-99 -105 -155 -168 -189 -213 -17 -22 -33 -42 -36 -45
-4 -3 -35 -43 -68 -90 -34 -47 -65 -89 -69 -95 -5 -5 -24 -35 -43 -65 -19 -30
-38 -56 -42 -58 -5 -2 -8 -8 -8 -13 0 -5 -18 -38 -40 -74 -22 -36 -40 -68 -40
-71 0 -3 -10 -20 -22 -37 -13 -18 -22 -33 -20 -35 1 -1 -20 -48 -46 -105 -27
-56 -55 -118 -62 -137 -7 -19 -19 -48 -26 -65 -22 -52 -76 -240 -94 -329 -13
-63 -15 -77 -27 -171 -15 -123 -7 -427 14 -520 2 -11 7 -36 9 -55 3 -19 8 -42
11 -50 3 -8 8 -26 10 -40 2 -14 9 -40 14 -58 6 -18 12 -39 13 -45 2 -7 5 -19
8 -27 3 -8 16 -44 28 -80 25 -76 30 -89 59 -153 11 -26 21 -54 21 -62 0 -8 3
-15 8 -15 4 0 16 -21 26 -47 26 -62 146 -277 157 -281 5 -2 9 -8 9 -13 0 -15
186 -287 210 -309 3 -3 35 -41 70 -85 l65 -80 0 -882 c1 -485 -1 -881 -2 -879
-4 4 -13 41 -19 83 -2 18 -11 59 -20 90 -8 32 -17 73 -19 91 -3 18 -9 41 -14
50 -5 9 -10 22 -10 27 -2 16 -22 89 -28 105 -3 8 -7 20 -9 25 -14 58 -79 218
-135 333 -208 431 -491 719 -909 927 -63 32 -123 62 -134 67 -10 5 -37 17 -60
25 -80 29 -241 85 -256 89 -8 2 -57 14 -107 28 -51 13 -93 22 -93 20 0 -3 -8
-1 -17 5 -10 5 -36 11 -58 15 -22 3 -51 8 -65 11 -56 12 -87 17 -120 21 -19 2
-52 6 -72 9 -95 13 -120 16 -228 22 -63 3 -144 7 -180 7 l-65 1 1 -130 c1
-120 9 -254 19 -315 3 -14 7 -47 10 -75 4 -27 8 -57 10 -65 2 -8 7 -35 10 -60
4 -25 14 -74 22 -110 9 -36 17 -74 19 -85 6 -41 64 -233 104 -345 50 -142 189
-428 213 -438 4 -2 7 -10 7 -18 0 -8 5 -14 10 -14 6 0 10 -5 10 -11 0 -11 53
-91 78 -117 7 -8 25 -30 40 -50 43 -58 139 -159 226 -237 58 -52 202 -155 284
-204 64 -38 234 -125 247 -127 6 -1 30 -11 55 -22 45 -20 111 -46 120 -48 3 0
19 -6 35 -13 17 -7 40 -15 52 -17 12 -2 35 -9 50 -15 39 -16 113 -36 213 -59
127 -28 140 -31 286 -55 21 -3 88 -11 169 -21 22 -2 103 -7 180 -10 77 -3 142
-8 145 -11 9 -9 6 -2053 -3 -2053 -5 0 -7 6 -4 14 3 8 2 29 -3 48 -5 18 -11
47 -14 63 -16 97 -96 383 -125 450 -25 55 -55 141 -53 147 1 5 -2 8 -8 8 -5 0
-10 5 -10 11 0 15 -89 190 -135 267 -18 31 -99 147 -109 158 -6 6 -18 22 -26
34 -35 53 -183 208 -251 265 -102 84 -226 171 -309 216 -25 13 -47 26 -50 29
-5 6 -85 45 -180 87 -51 23 -202 82 -225 87 -5 2 -17 5 -25 8 -29 11 -200 59
-225 64 -5 1 -12 3 -15 4 -3 1 -12 3 -20 5 -8 1 -49 10 -90 19 -41 9 -86 18
-100 20 -14 2 -41 7 -60 10 -19 3 -57 8 -85 12 -27 3 -59 7 -70 9 -70 9 -168
16 -289 20 l-139 5 6 -158 c4 -86 9 -173 11 -192 2 -19 7 -57 10 -85 4 -27 8
-63 11 -80 2 -16 6 -46 9 -65 4 -29 23 -131 40 -215 2 -11 14 -56 25 -100 28
-102 32 -118 34 -130 2 -5 5 -14 8 -20 3 -5 12 -32 19 -60 7 -27 16 -54 20
-60 4 -5 13 -28 20 -50 15 -49 30 -83 91 -210 136 -281 274 -463 514 -675 104
-91 400 -266 560 -330 215 -85 397 -139 595 -174 8 -1 29 -6 45 -9 52 -11 89
-17 140 -22 28 -3 61 -7 75 -10 66 -14 196 -19 550 -19 371 -1 496 4 625 24
33 5 77 12 99 14 21 3 46 8 55 10 9 3 36 8 61 11 24 4 47 8 51 10 3 2 21 7 40
10 52 9 187 45 259 68 36 12 67 22 70 22 19 3 87 29 95 36 5 5 15 9 22 9 7 0
36 11 65 23 29 13 55 24 58 24 37 6 384 210 437 258 6 5 31 25 55 44 79 63
223 215 301 318 42 56 77 107 77 113 0 5 5 10 10 10 6 0 10 5 10 11 0 6 8 23
19 37 52 75 151 285 208 442 53 147 118 395 139 530 3 19 7 45 9 57 7 42 24
169 30 218 3 28 8 121 11 207 l6 157 -134 -4 c-191 -6 -305 -16 -448 -41 -110
-19 -120 -21 -150 -28 -14 -3 -36 -8 -50 -10 -44 -7 -189 -46 -273 -73 -45
-15 -87 -27 -92 -29 -43 -8 -376 -155 -395 -174 -3 -3 -21 -14 -40 -24 -43
-24 -208 -133 -225 -149 -7 -7 -32 -28 -56 -47 -87 -70 -191 -180 -302 -320
-71 -89 -215 -348 -267 -480 -12 -30 -27 -66 -33 -80 -6 -14 -11 -27 -12 -30
0 -3 -15 -50 -32 -105 -49 -156 -61 -200 -89 -340 -14 -71 -27 -131 -28 -132
-1 -2 -2 463 -2 1032 l0 1035 76 1 c145 2 358 22 485 46 17 3 39 7 50 8 23 4
109 22 143 30 12 3 30 7 40 9 79 18 192 50 219 61 18 8 33 12 33 10 0 -2 20 4
45 15 25 11 46 19 48 19 14 -2 207 81 299 129 159 83 230 130 373 246 147 119
268 256 381 431 63 97 168 295 156 295 -4 0 -2 4 4 8 20 12 135 336 159 445 2
9 11 44 19 78 9 33 18 73 21 87 3 15 7 38 10 52 3 14 8 45 11 69 2 24 6 46 8
50 2 3 7 31 11 61 3 30 8 66 10 80 10 65 18 197 19 310 l1 125 -90 -1 c-116
-1 -332 -17 -391 -28 -12 -2 -45 -7 -75 -11 -30 -3 -61 -8 -70 -11 -10 -3 -30
-7 -45 -9 -57 -9 -91 -16 -170 -35 -43 -11 -89 -23 -100 -25 -37 -8 -236 -74
-309 -102 -70 -27 -325 -151 -335 -163 -3 -3 -34 -24 -70 -45 -36 -22 -70 -44
-77 -50 -17 -14 -32 -25 -78 -60 -167 -123 -369 -358 -467 -542 -12 -24 -26
-43 -30 -43 -4 0 -8 -9 -8 -20 0 -11 -3 -20 -8 -20 -8 0 -24 -35 -107 -225
-31 -69 -106 -296 -120 -363 -12 -53 -15 -65 -29 -120 -8 -31 -17 -78 -21
-104 -4 -27 -10 -48 -14 -48 -4 0 -7 391 -7 869 l1 868 38 44 c21 24 79 98
128 164 50 66 97 128 105 138 8 9 14 19 14 21 0 3 18 32 40 65 22 33 40 64 40
70 0 5 4 11 9 13 21 8 241 458 224 458 -3 0 -1 6 5 13 15 18 85 252 98 327 3
14 9 48 14 75 18 100 25 166 29 300 2 47 -4 155 -13 240 -6 49 -48 264 -59
300 -2 6 -11 37 -21 70 -42 142 -202 503 -227 513 -5 2 -9 12 -9 23 0 10 -4
19 -8 19 -5 0 -14 12 -21 27 -12 26 -127 207 -146 230 -5 7 -16 19 -22 27 -7
8 -13 18 -13 21 0 4 -6 12 -12 20 -7 7 -22 25 -33 41 -11 15 -24 32 -30 38 -5
6 -35 43 -66 81 -31 39 -96 112 -145 164 l-89 93 -70 -74z m255 -5272 c0 -3
-4 -8 -10 -11 -5 -3 -10 -1 -10 4 0 6 5 11 10 11 6 0 10 -2 10 -4z"/>
</g>
</svg>
